<?xml version="1.0" standalone="no"?><!DOCTYPE svg PUBLIC "-//W3C//DTD SVG 1.1//EN" "http://www.w3.org/Graphics/SVG/1.1/DTD/svg11.dtd"><svg t="1583213049585" class="icon" viewBox="0 0 1024 1024" version="1.1" xmlns="http://www.w3.org/2000/svg" p-id="1034" xmlns:xlink="http://www.w3.org/1999/xlink" width="32" height="32"><defs><style type="text/css">@font-face { font-family: element-icons; src: url("chrome-extension://moombeodfomdpjnpocobemoiaemednkg/fonts/element-icons.woff") format("woff"), url("chrome-extension://moombeodfomdpjnpocobemoiaemednkg/fonts/element-icons.ttf ") format("truetype"); }
</style></defs><path d="M142.628571 0c-13.970286 0-25.6 4.662857-34.925714 13.970286C98.432 25.6 91.428571 37.229714 91.428571 51.2v921.6c0 13.970286 4.662857 25.6 13.970286 37.229714 11.629714 9.325714 23.259429 13.970286 37.229714 13.970286h742.4c13.970286 0 25.6-4.662857 34.925715-13.970286 9.289143-9.307429 13.952-23.259429 13.952-34.907428V290.925714L649.965714 0H142.628571z" fill="#2288EE" p-id="1035"></path><path d="M936.228571 286.262857H703.506286c-27.940571 0-48.877714-23.277714-51.2-51.2V0L936.228571 286.262857z" fill="#9FCBF7" p-id="1036"></path><path d="M346.605714 402.285714m0 36.571429l0 365.714286q0 36.571429-36.571428 36.571428l0 0q-36.571429 0-36.571429-36.571428l0-365.714286q0-36.571429 36.571429-36.571429l0 0q36.571429 0 36.571428 36.571429Z" fill="#FFFFFF" p-id="1037"></path><path d="M639.177143 402.285714m0 36.571429l0 347.428571q0 36.571429-36.571429 36.571429l0 0q-36.571429 0-36.571428-36.571429l0-347.428571q0-36.571429 36.571428-36.571429l0 0q36.571429 0 36.571429 36.571429Z" fill="#FFFFFF" p-id="1038"></path><path d="M803.748571 475.428571m-36.571428 0l-329.142857 0q-36.571429 0-36.571429-36.571428l0 0q0-36.571429 36.571429-36.571429l329.142857 0q36.571429 0 36.571428 36.571429l0 0q0 36.571429-36.571428 36.571428Z" fill="#FFFFFF" p-id="1039"></path></svg>