<?xml version="1.0" standalone="no"?><!DOCTYPE svg PUBLIC "-//W3C//DTD SVG 1.1//EN" "http://www.w3.org/Graphics/SVG/1.1/DTD/svg11.dtd"><svg t="1583213064696" class="icon" viewBox="0 0 1024 1024" version="1.1" xmlns="http://www.w3.org/2000/svg" p-id="1164" xmlns:xlink="http://www.w3.org/1999/xlink" width="32" height="32"><defs><style type="text/css">@font-face { font-family: element-icons; src: url("chrome-extension://moombeodfomdpjnpocobemoiaemednkg/fonts/element-icons.woff") format("woff"), url("chrome-extension://moombeodfomdpjnpocobemoiaemednkg/fonts/element-icons.ttf ") format("truetype"); }
</style></defs><path d="M160.914286 0c-13.970286 0-25.6 4.662857-34.925715 13.970286C116.717714 25.6 109.714286 37.229714 109.714286 51.2v921.6c0 13.970286 4.662857 25.6 13.970285 37.229714 11.629714 9.325714 23.259429 13.970286 37.229715 13.970286h742.4c13.970286 0 25.6-4.662857 34.925714-13.970286 9.289143-9.307429 13.952-23.259429 13.952-34.907428V290.925714L668.251429 0H160.914286z" fill="#00CC43" p-id="1165"></path><path d="M237.714286 513.645714h605.074285c18.651429 0 34.925714 16.310857 34.925715 34.925715 0 18.614857-16.274286 34.925714-34.925715 34.925714H237.714286c-18.614857 0-34.925714-16.310857-34.925715-34.925714 0-18.614857 16.310857-34.925714 34.925715-34.925715zM237.714286 676.571429h605.074285c18.651429 0 34.925714 16.274286 34.925715 34.925714 0 18.596571-16.274286 34.889143-34.925715 34.889143H237.714286c-18.614857 0-34.925714-16.274286-34.925715-34.907429 0-18.614857 16.310857-34.907429 34.925715-34.907428z" fill="#FFFFFF" p-id="1166"></path><path d="M954.514286 286.262857H721.792c-27.940571 0-48.877714-23.277714-51.2-51.2V0L954.514286 286.262857z" fill="#91E9AD" p-id="1167"></path></svg>